<svg width="285" height="20" viewBox="0 0 285 20" fill="none" xmlns="http://www.w3.org/2000/svg">
  <path d="M0.768 19H8.04V18.88L5.448 17.728V10.528H8.304C11.76 10.528 15 8.68 15 5.536C15 2.392 11.76 0.999999 8.304 0.999999H0.768V1.12L2.928 2.272V17.728L0.768 18.88V19ZM5.448 9.4V2.128H8.256C10.56 2.128 12.24 3.592 12.24 5.776C12.24 7.96 10.56 9.4 8.256 9.4H5.448ZM25.5726 19H32.1726V18.88L30.3726 17.728L22.1166 0.327999L19.9086 1.576L21.0126 3.904L15.1326 17.728L13.4046 18.88V19H18.3726V18.88L16.2846 17.8L18.2286 13.24H25.4286L27.6126 17.848L25.5726 18.88V19ZM18.7086 12.112L21.6366 5.248L24.9006 12.112H18.7086ZM38.3925 19.24C41.6805 19.24 44.2485 17.056 44.2485 14.056C44.2485 12.04 42.8565 10.264 40.1925 9.016L37.9125 7.936C35.4165 6.76 34.4325 5.92 34.4325 4.456C34.4325 2.872 35.8245 1.792 37.7445 1.792C40.0245 1.792 41.6085 3.4 43.1925 6.568H43.3125L43.0245 1.6C41.0805 1.048 39.8325 0.759999 38.0565 0.759999C34.9605 0.759999 32.5845 2.728 32.5845 5.32C32.5845 7.552 34.0725 8.944 36.5685 10.12L38.8485 11.2C41.1045 12.256 42.4005 13.24 42.4005 15.088C42.4005 17.152 40.7445 18.208 38.9445 18.208C36.3045 18.208 34.2165 16.384 32.5845 12.904H32.4645L32.7765 18.184C34.3605 18.712 36.0645 19.24 38.3925 19.24ZM55.1481 19.24C60.1161 19.24 64.1721 15.304 64.1721 9.76C64.1721 4.6 60.1401 0.759999 55.1481 0.759999C50.1801 0.759999 46.1241 4.696 46.1241 10.24C46.1241 15.4 50.1561 19.24 55.1481 19.24ZM48.8361 9.136C48.8361 5.368 50.8281 1.912 54.6441 1.912C58.7961 1.912 61.4601 6.112 61.4601 10.864C61.4601 14.632 59.4681 18.088 55.6521 18.088C51.5001 18.088 48.8361 13.888 48.8361 9.136ZM75.0448 19.24C78.1648 19.24 80.3008 17.224 82.2688 14.704L81.5248 14.08C80.0848 15.76 78.0448 17.224 75.6928 17.224C72.0448 17.224 68.5648 14.224 68.5648 9.136C68.5648 5.08 71.1568 1.84 74.9248 1.84C77.9968 1.84 79.7968 3.568 81.5728 7H81.6928L81.0688 2.008C78.9568 1.216 77.5168 0.759999 75.3088 0.759999C70.2208 0.759999 66.0928 4.792 66.0928 10.144C66.0928 15.544 70.3408 19.24 75.0448 19.24ZM92.6715 19.24C97.6395 19.24 101.696 15.304 101.696 9.76C101.696 4.6 97.6635 0.759999 92.6715 0.759999C87.7035 0.759999 83.6475 4.696 83.6475 10.24C83.6475 15.4 87.6795 19.24 92.6715 19.24ZM86.3595 9.136C86.3595 5.368 88.3515 1.912 92.1675 1.912C96.3195 1.912 98.9835 6.112 98.9835 10.864C98.9835 14.632 96.9915 18.088 93.1755 18.088C89.0235 18.088 86.3595 13.888 86.3595 9.136ZM114.016 18.184H114.568L121.048 3.016V17.728L118.888 18.88V19H125.728V18.88L123.568 17.728V2.272L125.728 1.12V0.999999H120.64L114.904 14.416L108.16 0.999999H103.12V1.144L105.256 2.128V17.728L103.096 18.88V19H108.64V18.88L106.48 17.728V3.208L114.016 18.184ZM143.313 18.184H143.865L150.345 3.016V17.728L148.185 18.88V19H155.025V18.88L152.865 17.728V2.272L155.025 1.12V0.999999H149.937L144.201 14.416L137.457 0.999999H132.417V1.144L134.553 2.128V17.728L132.393 18.88V19H137.937V18.88L135.777 17.728V3.208L143.313 18.184ZM165.437 19.24C169.349 19.24 171.581 16.456 171.581 13.312V2.272L173.741 1.12V0.999999H168.197V1.12L170.357 2.272V13.312C170.357 15.904 168.773 18.016 165.773 18.016C162.773 18.016 160.853 16.144 160.853 12.568V2.272L163.013 1.12V0.999999H156.173V1.12L158.333 2.272V12.328C158.333 17.416 161.525 19.24 165.437 19.24ZM181.15 19.24C184.438 19.24 187.006 17.056 187.006 14.056C187.006 12.04 185.614 10.264 182.95 9.016L180.67 7.936C178.174 6.76 177.19 5.92 177.19 4.456C177.19 2.872 178.582 1.792 180.502 1.792C182.782 1.792 184.366 3.4 185.95 6.568H186.07L185.782 1.6C183.838 1.048 182.59 0.759999 180.814 0.759999C177.718 0.759999 175.342 2.728 175.342 5.32C175.342 7.552 176.83 8.944 179.326 10.12L181.606 11.2C183.862 12.256 185.158 13.24 185.158 15.088C185.158 17.152 183.502 18.208 181.702 18.208C179.062 18.208 176.974 16.384 175.342 12.904H175.222L175.534 18.184C177.118 18.712 178.822 19.24 181.15 19.24ZM188.69 19H195.53V18.88L193.37 17.728V2.272L195.53 1.12V0.999999H188.69V1.12L190.85 2.272V17.728L188.69 18.88V19ZM205.873 19.24C208.993 19.24 211.129 17.224 213.097 14.704L212.353 14.08C210.913 15.76 208.873 17.224 206.521 17.224C202.873 17.224 199.393 14.224 199.393 9.136C199.393 5.08 201.985 1.84 205.753 1.84C208.825 1.84 210.625 3.568 212.401 7H212.521L211.897 2.008C209.785 1.216 208.345 0.759999 206.137 0.759999C201.049 0.759999 196.921 4.792 196.921 10.144C196.921 15.544 201.169 19.24 205.873 19.24ZM228.678 19.24C231.798 19.24 233.934 17.224 235.902 14.704L235.158 14.08C233.718 15.76 231.678 17.224 229.326 17.224C225.678 17.224 222.198 14.224 222.198 9.136C222.198 5.08 224.79 1.84 228.558 1.84C231.63 1.84 233.43 3.568 235.206 7H235.326L234.702 2.008C232.59 1.216 231.15 0.759999 228.942 0.759999C223.854 0.759999 219.726 4.792 219.726 10.144C219.726 15.544 223.974 19.24 228.678 19.24ZM237.206 19H249.278L250.886 14.128H250.766L246.878 17.872H241.886V2.272L244.046 1.12V0.999999H237.206V1.12L239.366 2.272V17.728L237.206 18.88V19ZM260.218 19.24C264.13 19.24 266.362 16.456 266.362 13.312V2.272L268.522 1.12V0.999999H262.978V1.12L265.138 2.272V13.312C265.138 15.904 263.554 18.016 260.554 18.016C257.554 18.016 255.634 16.144 255.634 12.568V2.272L257.794 1.12V0.999999H250.954V1.12L253.114 2.272V12.328C253.114 17.416 256.306 19.24 260.218 19.24ZM269.737 19H278.161C282.241 19 284.809 16.672 284.809 13.792C284.809 11.176 282.457 9.904 279.769 9.376C281.977 8.632 283.585 7.24 283.585 5.32C283.585 2.632 280.585 0.999999 277.129 0.999999H269.737V1.12L271.897 2.272V17.728L269.737 18.88V19ZM274.417 17.872V10.024H277.489C280.657 10.024 282.049 11.608 282.049 13.936C282.049 16.264 280.657 17.872 277.489 17.872H274.417ZM274.417 8.896V2.128H277.081C279.385 2.128 280.825 3.52 280.825 5.488C280.825 7.456 279.385 8.896 277.081 8.896H274.417Z" fill="black" />
</svg>
